<mxfile host="app.diagrams.net" modified="2022-11-06T08:50:50.410Z" agent="5.0 (Windows NT 10.0; Win64; x64) AppleWebKit/537.36 (KHTML, like Gecko) Chrome/107.0.0.0 Safari/537.36" etag="1GfqQRXE6R_jmOxcnYBQ" version="20.5.2" type="github">
  <diagram id="RbMgAAy92q9eUkuMfOsH" name="第 1 页">
    <mxGraphModel dx="1038" dy="483" grid="1" gridSize="10" guides="1" tooltips="1" connect="1" arrows="1" fold="1" page="1" pageScale="1" pageWidth="827" pageHeight="1169" math="0" shadow="0">
      <root>
        <mxCell id="0" />
        <mxCell id="1" parent="0" />
        <mxCell id="Arx3bD0SInVLwc2aBMIQ-85" value="update time" style="text;html=1;strokeColor=none;fillColor=none;align=center;verticalAlign=middle;whiteSpace=wrap;rounded=0;labelBackgroundColor=#ffffff;fontSize=11;" vertex="1" parent="1">
          <mxGeometry x="400" y="595" width="50" height="25" as="geometry" />
        </mxCell>
        <mxCell id="Arx3bD0SInVLwc2aBMIQ-79" value="return form call" style="text;html=1;strokeColor=none;fillColor=none;align=center;verticalAlign=middle;whiteSpace=wrap;rounded=0;labelBackgroundColor=#ffffff;fontSize=11;" vertex="1" parent="1">
          <mxGeometry x="191" y="595" width="50" height="25" as="geometry" />
        </mxCell>
        <mxCell id="Arx3bD0SInVLwc2aBMIQ-72" value="call subscribe procedure" style="text;html=1;strokeColor=none;fillColor=none;align=center;verticalAlign=middle;whiteSpace=wrap;rounded=0;labelBackgroundColor=#ffffff;fontSize=11;" vertex="1" parent="1">
          <mxGeometry x="118" y="593" width="45" height="25" as="geometry" />
        </mxCell>
        <mxCell id="Arx3bD0SInVLwc2aBMIQ-82" value="update time" style="text;html=1;strokeColor=none;fillColor=none;align=center;verticalAlign=middle;whiteSpace=wrap;rounded=0;labelBackgroundColor=#ffffff;fontSize=11;" vertex="1" parent="1">
          <mxGeometry x="270" y="595" width="50" height="25" as="geometry" />
        </mxCell>
        <mxCell id="Arx3bD0SInVLwc2aBMIQ-6" value="" style="group" vertex="1" connectable="0" parent="1">
          <mxGeometry x="70" y="60" width="210" height="170" as="geometry" />
        </mxCell>
        <mxCell id="Arx3bD0SInVLwc2aBMIQ-2" value="" style="rounded=0;whiteSpace=wrap;html=1;fillColor=#FFB570;" vertex="1" parent="Arx3bD0SInVLwc2aBMIQ-6">
          <mxGeometry width="210" height="170" as="geometry" />
        </mxCell>
        <mxCell id="Arx3bD0SInVLwc2aBMIQ-3" value="" style="rounded=1;whiteSpace=wrap;html=1;fillColor=#dae8fc;strokeColor=#6c8ebf;" vertex="1" parent="Arx3bD0SInVLwc2aBMIQ-6">
          <mxGeometry x="25" y="20" width="160" height="130" as="geometry" />
        </mxCell>
        <mxCell id="Arx3bD0SInVLwc2aBMIQ-1" value="display" style="ellipse;whiteSpace=wrap;html=1;" vertex="1" parent="Arx3bD0SInVLwc2aBMIQ-6">
          <mxGeometry x="90" y="30" width="70" height="50" as="geometry" />
        </mxCell>
        <mxCell id="Arx3bD0SInVLwc2aBMIQ-4" value="sync time" style="ellipse;whiteSpace=wrap;html=1;" vertex="1" parent="Arx3bD0SInVLwc2aBMIQ-6">
          <mxGeometry x="90" y="90" width="70" height="50" as="geometry" />
        </mxCell>
        <mxCell id="Arx3bD0SInVLwc2aBMIQ-5" value="&lt;font style=&quot;font-size: 18px;&quot;&gt;client&lt;/font&gt;" style="text;html=1;align=center;verticalAlign=middle;resizable=0;points=[];autosize=1;strokeColor=none;fillColor=none;" vertex="1" parent="Arx3bD0SInVLwc2aBMIQ-6">
          <mxGeometry x="20" y="65" width="70" height="40" as="geometry" />
        </mxCell>
        <mxCell id="Arx3bD0SInVLwc2aBMIQ-7" value="" style="group" vertex="1" connectable="0" parent="1">
          <mxGeometry x="70" y="290" width="210" height="170" as="geometry" />
        </mxCell>
        <mxCell id="Arx3bD0SInVLwc2aBMIQ-8" value="" style="rounded=0;whiteSpace=wrap;html=1;fillColor=#FFB570;" vertex="1" parent="Arx3bD0SInVLwc2aBMIQ-7">
          <mxGeometry width="210" height="170" as="geometry" />
        </mxCell>
        <mxCell id="Arx3bD0SInVLwc2aBMIQ-9" value="" style="rounded=1;whiteSpace=wrap;html=1;fillColor=#dae8fc;strokeColor=#6c8ebf;" vertex="1" parent="Arx3bD0SInVLwc2aBMIQ-7">
          <mxGeometry x="25" y="20" width="160" height="130" as="geometry" />
        </mxCell>
        <mxCell id="Arx3bD0SInVLwc2aBMIQ-10" value="display" style="ellipse;whiteSpace=wrap;html=1;" vertex="1" parent="Arx3bD0SInVLwc2aBMIQ-7">
          <mxGeometry x="90" y="30" width="70" height="50" as="geometry" />
        </mxCell>
        <mxCell id="Arx3bD0SInVLwc2aBMIQ-11" value="sync time" style="ellipse;whiteSpace=wrap;html=1;" vertex="1" parent="Arx3bD0SInVLwc2aBMIQ-7">
          <mxGeometry x="90" y="90" width="70" height="50" as="geometry" />
        </mxCell>
        <mxCell id="Arx3bD0SInVLwc2aBMIQ-12" value="&lt;font style=&quot;font-size: 18px;&quot;&gt;client&lt;/font&gt;" style="text;html=1;align=center;verticalAlign=middle;resizable=0;points=[];autosize=1;strokeColor=none;fillColor=none;" vertex="1" parent="Arx3bD0SInVLwc2aBMIQ-7">
          <mxGeometry x="20" y="65" width="70" height="40" as="geometry" />
        </mxCell>
        <mxCell id="Arx3bD0SInVLwc2aBMIQ-22" value="" style="group" vertex="1" connectable="0" parent="1">
          <mxGeometry x="460" y="390" width="260" height="100" as="geometry" />
        </mxCell>
        <mxCell id="Arx3bD0SInVLwc2aBMIQ-13" value="" style="group" vertex="1" connectable="0" parent="Arx3bD0SInVLwc2aBMIQ-22">
          <mxGeometry width="70" height="60" as="geometry" />
        </mxCell>
        <mxCell id="Arx3bD0SInVLwc2aBMIQ-14" value="" style="rounded=0;whiteSpace=wrap;html=1;fillColor=#FFB570;" vertex="1" parent="Arx3bD0SInVLwc2aBMIQ-13">
          <mxGeometry width="70" height="59.99999999999999" as="geometry" />
        </mxCell>
        <mxCell id="Arx3bD0SInVLwc2aBMIQ-15" value="" style="rounded=1;whiteSpace=wrap;html=1;fillColor=#dae8fc;strokeColor=#6c8ebf;" vertex="1" parent="Arx3bD0SInVLwc2aBMIQ-22">
          <mxGeometry x="110" y="10" width="60" height="40" as="geometry" />
        </mxCell>
        <mxCell id="Arx3bD0SInVLwc2aBMIQ-17" value="" style="ellipse;whiteSpace=wrap;html=1;" vertex="1" parent="Arx3bD0SInVLwc2aBMIQ-22">
          <mxGeometry x="210" y="15" width="40" height="30" as="geometry" />
        </mxCell>
        <mxCell id="Arx3bD0SInVLwc2aBMIQ-19" value="Machine" style="text;html=1;strokeColor=none;fillColor=none;align=center;verticalAlign=middle;whiteSpace=wrap;rounded=0;fontSize=18;" vertex="1" parent="Arx3bD0SInVLwc2aBMIQ-22">
          <mxGeometry x="5" y="70" width="60" height="30" as="geometry" />
        </mxCell>
        <mxCell id="Arx3bD0SInVLwc2aBMIQ-20" value="Process" style="text;html=1;strokeColor=none;fillColor=none;align=center;verticalAlign=middle;whiteSpace=wrap;rounded=0;fontSize=18;" vertex="1" parent="Arx3bD0SInVLwc2aBMIQ-22">
          <mxGeometry x="110" y="70" width="60" height="30" as="geometry" />
        </mxCell>
        <mxCell id="Arx3bD0SInVLwc2aBMIQ-21" value="Thread" style="text;html=1;strokeColor=none;fillColor=none;align=center;verticalAlign=middle;whiteSpace=wrap;rounded=0;fontSize=18;" vertex="1" parent="Arx3bD0SInVLwc2aBMIQ-22">
          <mxGeometry x="200" y="70" width="60" height="30" as="geometry" />
        </mxCell>
        <mxCell id="Arx3bD0SInVLwc2aBMIQ-33" value="" style="group" vertex="1" connectable="0" parent="1">
          <mxGeometry x="510" y="100" width="220" height="230" as="geometry" />
        </mxCell>
        <mxCell id="Arx3bD0SInVLwc2aBMIQ-24" value="" style="rounded=0;whiteSpace=wrap;html=1;fillColor=#FFB570;" vertex="1" parent="Arx3bD0SInVLwc2aBMIQ-33">
          <mxGeometry width="220.00000000000003" height="230" as="geometry" />
        </mxCell>
        <mxCell id="Arx3bD0SInVLwc2aBMIQ-25" value="" style="rounded=1;whiteSpace=wrap;html=1;fillColor=#dae8fc;strokeColor=#6c8ebf;" vertex="1" parent="Arx3bD0SInVLwc2aBMIQ-33">
          <mxGeometry x="19.250000000000004" y="15.679090909090906" width="181.50000000000003" height="198.63636363636363" as="geometry" />
        </mxCell>
        <mxCell id="Arx3bD0SInVLwc2aBMIQ-26" value="handle subscribe" style="ellipse;whiteSpace=wrap;html=1;" vertex="1" parent="Arx3bD0SInVLwc2aBMIQ-33">
          <mxGeometry x="44" y="20.003636363636364" width="77" height="52.27272727272727" as="geometry" />
        </mxCell>
        <mxCell id="Arx3bD0SInVLwc2aBMIQ-27" value="push&amp;nbsp;&lt;br&gt;time" style="ellipse;whiteSpace=wrap;html=1;" vertex="1" parent="Arx3bD0SInVLwc2aBMIQ-33">
          <mxGeometry x="44" y="87.0409090909091" width="77" height="52.27272727272727" as="geometry" />
        </mxCell>
        <mxCell id="Arx3bD0SInVLwc2aBMIQ-28" value="&lt;font style=&quot;font-size: 18px;&quot;&gt;server&lt;/font&gt;" style="text;html=1;align=center;verticalAlign=middle;resizable=0;points=[];autosize=1;strokeColor=none;fillColor=none;" vertex="1" parent="Arx3bD0SInVLwc2aBMIQ-33">
          <mxGeometry x="130.75" y="87.03818181818181" width="70" height="40" as="geometry" />
        </mxCell>
        <mxCell id="Arx3bD0SInVLwc2aBMIQ-31" value="administration" style="ellipse;whiteSpace=wrap;html=1;" vertex="1" parent="Arx3bD0SInVLwc2aBMIQ-33">
          <mxGeometry x="33" y="149.99818181818182" width="99.00000000000001" height="52.27272727272727" as="geometry" />
        </mxCell>
        <mxCell id="Arx3bD0SInVLwc2aBMIQ-34" style="edgeStyle=entityRelationEdgeStyle;rounded=0;orthogonalLoop=1;jettySize=auto;html=1;exitX=1;exitY=0.5;exitDx=0;exitDy=0;fontSize=18;" edge="1" parent="1" source="Arx3bD0SInVLwc2aBMIQ-1" target="Arx3bD0SInVLwc2aBMIQ-26">
          <mxGeometry relative="1" as="geometry" />
        </mxCell>
        <mxCell id="Arx3bD0SInVLwc2aBMIQ-36" style="edgeStyle=entityRelationEdgeStyle;rounded=0;orthogonalLoop=1;jettySize=auto;html=1;exitX=1;exitY=0.5;exitDx=0;exitDy=0;entryX=0;entryY=0.5;entryDx=0;entryDy=0;fontSize=18;" edge="1" parent="1" source="Arx3bD0SInVLwc2aBMIQ-10" target="Arx3bD0SInVLwc2aBMIQ-26">
          <mxGeometry relative="1" as="geometry" />
        </mxCell>
        <mxCell id="Arx3bD0SInVLwc2aBMIQ-38" style="edgeStyle=entityRelationEdgeStyle;rounded=0;orthogonalLoop=1;jettySize=auto;html=1;exitX=0;exitY=0.5;exitDx=0;exitDy=0;fontSize=18;" edge="1" parent="1" source="Arx3bD0SInVLwc2aBMIQ-27" target="Arx3bD0SInVLwc2aBMIQ-4">
          <mxGeometry relative="1" as="geometry" />
        </mxCell>
        <mxCell id="Arx3bD0SInVLwc2aBMIQ-39" style="edgeStyle=entityRelationEdgeStyle;rounded=0;orthogonalLoop=1;jettySize=auto;html=1;exitX=0;exitY=0.5;exitDx=0;exitDy=0;entryX=1;entryY=0.5;entryDx=0;entryDy=0;fontSize=18;" edge="1" parent="1" source="Arx3bD0SInVLwc2aBMIQ-27" target="Arx3bD0SInVLwc2aBMIQ-11">
          <mxGeometry relative="1" as="geometry" />
        </mxCell>
        <mxCell id="Arx3bD0SInVLwc2aBMIQ-43" value="RPC" style="text;html=1;align=center;verticalAlign=middle;resizable=0;points=[];autosize=1;strokeColor=none;fillColor=none;fontSize=18;" vertex="1" parent="1">
          <mxGeometry x="350" y="200" width="60" height="40" as="geometry" />
        </mxCell>
        <mxCell id="Arx3bD0SInVLwc2aBMIQ-44" value="Client" style="text;html=1;align=center;verticalAlign=middle;resizable=0;points=[];autosize=1;strokeColor=none;fillColor=none;fontSize=18;" vertex="1" parent="1">
          <mxGeometry x="15" y="550" width="70" height="40" as="geometry" />
        </mxCell>
        <mxCell id="Arx3bD0SInVLwc2aBMIQ-45" value="Server" style="text;html=1;align=center;verticalAlign=middle;resizable=0;points=[];autosize=1;strokeColor=none;fillColor=none;fontSize=18;" vertex="1" parent="1">
          <mxGeometry x="15" y="640" width="80" height="40" as="geometry" />
        </mxCell>
        <mxCell id="Arx3bD0SInVLwc2aBMIQ-48" value="" style="endArrow=none;html=1;rounded=0;strokeWidth=3;fontSize=18;" edge="1" parent="1">
          <mxGeometry width="50" height="50" relative="1" as="geometry">
            <mxPoint x="100" y="570" as="sourcePoint" />
            <mxPoint x="150" y="570" as="targetPoint" />
          </mxGeometry>
        </mxCell>
        <mxCell id="Arx3bD0SInVLwc2aBMIQ-50" value="" style="endArrow=none;dashed=1;html=1;dashPattern=1 3;strokeWidth=2;rounded=0;fontSize=18;" edge="1" parent="1">
          <mxGeometry width="50" height="50" relative="1" as="geometry">
            <mxPoint x="100" y="660" as="sourcePoint" />
            <mxPoint x="180" y="660" as="targetPoint" />
          </mxGeometry>
        </mxCell>
        <mxCell id="Arx3bD0SInVLwc2aBMIQ-51" value="" style="endArrow=classic;html=1;rounded=0;strokeWidth=1;fontSize=18;" edge="1" parent="1">
          <mxGeometry width="50" height="50" relative="1" as="geometry">
            <mxPoint x="150" y="570" as="sourcePoint" />
            <mxPoint x="180" y="660" as="targetPoint" />
          </mxGeometry>
        </mxCell>
        <mxCell id="Arx3bD0SInVLwc2aBMIQ-52" value="" style="endArrow=classic;html=1;rounded=0;strokeWidth=1;fontSize=18;" edge="1" parent="1">
          <mxGeometry width="50" height="50" relative="1" as="geometry">
            <mxPoint x="180" y="660" as="sourcePoint" />
            <mxPoint x="210" y="570" as="targetPoint" />
          </mxGeometry>
        </mxCell>
        <mxCell id="Arx3bD0SInVLwc2aBMIQ-53" value="" style="endArrow=none;html=1;rounded=0;strokeWidth=3;fontSize=18;" edge="1" parent="1">
          <mxGeometry width="50" height="50" relative="1" as="geometry">
            <mxPoint x="210" y="569.5" as="sourcePoint" />
            <mxPoint x="320" y="570" as="targetPoint" />
          </mxGeometry>
        </mxCell>
        <mxCell id="Arx3bD0SInVLwc2aBMIQ-54" value="" style="endArrow=none;html=1;rounded=0;strokeWidth=3;fontSize=18;" edge="1" parent="1">
          <mxGeometry width="50" height="50" relative="1" as="geometry">
            <mxPoint x="180" y="659.5" as="sourcePoint" />
            <mxPoint x="290" y="660" as="targetPoint" />
          </mxGeometry>
        </mxCell>
        <mxCell id="Arx3bD0SInVLwc2aBMIQ-55" value="" style="endArrow=classic;html=1;rounded=0;strokeWidth=1;fontSize=18;" edge="1" parent="1">
          <mxGeometry width="50" height="50" relative="1" as="geometry">
            <mxPoint x="290" y="660" as="sourcePoint" />
            <mxPoint x="320" y="570" as="targetPoint" />
          </mxGeometry>
        </mxCell>
        <mxCell id="Arx3bD0SInVLwc2aBMIQ-56" value="" style="endArrow=none;dashed=1;html=1;dashPattern=1 3;strokeWidth=2;rounded=0;fontSize=18;" edge="1" parent="1">
          <mxGeometry width="50" height="50" relative="1" as="geometry">
            <mxPoint x="150" y="570" as="sourcePoint" />
            <mxPoint x="210" y="570" as="targetPoint" />
          </mxGeometry>
        </mxCell>
        <mxCell id="Arx3bD0SInVLwc2aBMIQ-57" value="" style="endArrow=none;dashed=1;html=1;dashPattern=1 3;strokeWidth=2;rounded=0;fontSize=18;" edge="1" parent="1">
          <mxGeometry width="50" height="50" relative="1" as="geometry">
            <mxPoint x="290" y="659.5" as="sourcePoint" />
            <mxPoint x="370" y="660" as="targetPoint" />
          </mxGeometry>
        </mxCell>
        <mxCell id="Arx3bD0SInVLwc2aBMIQ-58" value="" style="endArrow=classic;html=1;rounded=0;strokeWidth=1;fontSize=18;" edge="1" parent="1">
          <mxGeometry width="50" height="50" relative="1" as="geometry">
            <mxPoint x="340" y="570" as="sourcePoint" />
            <mxPoint x="370" y="660" as="targetPoint" />
          </mxGeometry>
        </mxCell>
        <mxCell id="Arx3bD0SInVLwc2aBMIQ-59" value="" style="endArrow=none;dashed=1;html=1;dashPattern=1 3;strokeWidth=2;rounded=0;fontSize=18;" edge="1" parent="1">
          <mxGeometry width="50" height="50" relative="1" as="geometry">
            <mxPoint x="320" y="569.5" as="sourcePoint" />
            <mxPoint x="340" y="570" as="targetPoint" />
          </mxGeometry>
        </mxCell>
        <mxCell id="Arx3bD0SInVLwc2aBMIQ-60" value="" style="endArrow=none;html=1;rounded=0;strokeWidth=3;fontSize=18;" edge="1" parent="1">
          <mxGeometry width="50" height="50" relative="1" as="geometry">
            <mxPoint x="340" y="569.5" as="sourcePoint" />
            <mxPoint x="450" y="570" as="targetPoint" />
          </mxGeometry>
        </mxCell>
        <mxCell id="Arx3bD0SInVLwc2aBMIQ-61" value="" style="endArrow=none;html=1;rounded=0;strokeWidth=3;fontSize=18;" edge="1" parent="1">
          <mxGeometry width="50" height="50" relative="1" as="geometry">
            <mxPoint x="370" y="659.5" as="sourcePoint" />
            <mxPoint x="420" y="660" as="targetPoint" />
          </mxGeometry>
        </mxCell>
        <mxCell id="Arx3bD0SInVLwc2aBMIQ-62" value="" style="endArrow=classic;html=1;rounded=0;strokeWidth=1;fontSize=18;" edge="1" parent="1">
          <mxGeometry width="50" height="50" relative="1" as="geometry">
            <mxPoint x="420" y="660" as="sourcePoint" />
            <mxPoint x="450" y="570" as="targetPoint" />
          </mxGeometry>
        </mxCell>
        <mxCell id="Arx3bD0SInVLwc2aBMIQ-63" value="" style="endArrow=none;dashed=1;html=1;dashPattern=1 3;strokeWidth=2;rounded=0;fontSize=18;" edge="1" parent="1">
          <mxGeometry width="50" height="50" relative="1" as="geometry">
            <mxPoint x="414" y="659.5" as="sourcePoint" />
            <mxPoint x="494" y="660" as="targetPoint" />
          </mxGeometry>
        </mxCell>
        <mxCell id="Arx3bD0SInVLwc2aBMIQ-64" value="" style="endArrow=classic;html=1;rounded=0;strokeWidth=1;fontSize=18;" edge="1" parent="1">
          <mxGeometry width="50" height="50" relative="1" as="geometry">
            <mxPoint x="470" y="570.5" as="sourcePoint" />
            <mxPoint x="500" y="660.5" as="targetPoint" />
          </mxGeometry>
        </mxCell>
        <mxCell id="Arx3bD0SInVLwc2aBMIQ-65" value="" style="endArrow=none;dashed=1;html=1;dashPattern=1 3;strokeWidth=2;rounded=0;fontSize=18;" edge="1" parent="1">
          <mxGeometry width="50" height="50" relative="1" as="geometry">
            <mxPoint x="450" y="570" as="sourcePoint" />
            <mxPoint x="470" y="570.5" as="targetPoint" />
          </mxGeometry>
        </mxCell>
        <mxCell id="Arx3bD0SInVLwc2aBMIQ-66" value="" style="endArrow=none;html=1;rounded=0;strokeWidth=3;fontSize=18;" edge="1" parent="1">
          <mxGeometry width="50" height="50" relative="1" as="geometry">
            <mxPoint x="470" y="570" as="sourcePoint" />
            <mxPoint x="550" y="570" as="targetPoint" />
          </mxGeometry>
        </mxCell>
        <mxCell id="Arx3bD0SInVLwc2aBMIQ-67" value="" style="endArrow=none;html=1;rounded=0;strokeWidth=3;fontSize=18;" edge="1" parent="1">
          <mxGeometry width="50" height="50" relative="1" as="geometry">
            <mxPoint x="500" y="660" as="sourcePoint" />
            <mxPoint x="550" y="660.5" as="targetPoint" />
          </mxGeometry>
        </mxCell>
        <mxCell id="Arx3bD0SInVLwc2aBMIQ-69" value="Time" style="text;html=1;align=center;verticalAlign=middle;resizable=0;points=[];autosize=1;strokeColor=none;fillColor=none;fontSize=18;" vertex="1" parent="1">
          <mxGeometry x="500" y="670" width="60" height="40" as="geometry" />
        </mxCell>
        <mxCell id="Arx3bD0SInVLwc2aBMIQ-70" value="" style="endArrow=classic;html=1;rounded=0;strokeWidth=1;fontSize=18;" edge="1" parent="1" source="Arx3bD0SInVLwc2aBMIQ-69">
          <mxGeometry width="50" height="50" relative="1" as="geometry">
            <mxPoint x="570" y="730" as="sourcePoint" />
            <mxPoint x="590" y="690" as="targetPoint" />
          </mxGeometry>
        </mxCell>
        <mxCell id="Arx3bD0SInVLwc2aBMIQ-78" value="wait for acceptance" style="text;html=1;strokeColor=none;fillColor=none;align=center;verticalAlign=middle;whiteSpace=wrap;rounded=0;labelBackgroundColor=#ffffff;fontSize=11;" vertex="1" parent="1">
          <mxGeometry x="158" y="535" width="45" height="25" as="geometry" />
        </mxCell>
        <mxCell id="Arx3bD0SInVLwc2aBMIQ-81" value="handle subscribe request" style="text;html=1;strokeColor=none;fillColor=none;align=center;verticalAlign=middle;whiteSpace=wrap;rounded=0;labelBackgroundColor=#ffffff;fontSize=11;" vertex="1" parent="1">
          <mxGeometry x="160" y="654" width="95" height="50" as="geometry" />
        </mxCell>
        <mxCell id="Arx3bD0SInVLwc2aBMIQ-84" value="ack" style="text;html=1;strokeColor=none;fillColor=none;align=center;verticalAlign=middle;whiteSpace=wrap;rounded=0;labelBackgroundColor=#ffffff;fontSize=11;" vertex="1" parent="1">
          <mxGeometry x="340" y="595" width="50" height="25" as="geometry" />
        </mxCell>
        <mxCell id="Arx3bD0SInVLwc2aBMIQ-86" value="ack" style="text;html=1;strokeColor=none;fillColor=none;align=center;verticalAlign=middle;whiteSpace=wrap;rounded=0;labelBackgroundColor=#ffffff;fontSize=11;" vertex="1" parent="1">
          <mxGeometry x="470" y="595" width="50" height="25" as="geometry" />
        </mxCell>
        <mxCell id="Arx3bD0SInVLwc2aBMIQ-87" value="call client with ont-way RPC" style="text;html=1;strokeColor=none;fillColor=none;align=center;verticalAlign=middle;whiteSpace=wrap;rounded=0;labelBackgroundColor=#ffffff;fontSize=11;" vertex="1" parent="1">
          <mxGeometry x="280" y="670" width="95" height="50" as="geometry" />
        </mxCell>
        <mxCell id="Arx3bD0SInVLwc2aBMIQ-88" value="" style="endArrow=classic;html=1;rounded=0;strokeWidth=1;fontSize=11;" edge="1" parent="1" source="Arx3bD0SInVLwc2aBMIQ-87">
          <mxGeometry width="50" height="50" relative="1" as="geometry">
            <mxPoint x="365" y="735" as="sourcePoint" />
            <mxPoint x="290" y="660" as="targetPoint" />
          </mxGeometry>
        </mxCell>
        <mxCell id="Arx3bD0SInVLwc2aBMIQ-89" value="interrupt client" style="text;html=1;strokeColor=none;fillColor=none;align=center;verticalAlign=middle;whiteSpace=wrap;rounded=0;labelBackgroundColor=#ffffff;fontSize=11;" vertex="1" parent="1">
          <mxGeometry x="305" y="535" width="45" height="25" as="geometry" />
        </mxCell>
      </root>
    </mxGraphModel>
  </diagram>
</mxfile>
